<svg width="1038" height="306" viewBox="0 0 1038 306" fill="none" xmlns="http://www.w3.org/2000/svg">
<path d="M45.685 175.371V211.962C45.685 238.573 45.685 252.918 50.0458 256.66C53.576 259.778 58.9752 261.234 75.1726 261.234C86.1785 261.234 94.2772 261.026 99.4687 255.413C101.961 252.71 104.453 246.889 104.868 242.939C105.075 241.068 105.491 239.82 107.152 239.82C108.606 239.82 108.813 240.86 108.813 243.354C108.813 245.641 107.36 261.234 105.698 267.263C104.453 271.837 103.414 272.876 92.616 272.876C77.6645 272.876 66.8662 272.46 57.5216 272.252C48.1769 271.837 40.7012 271.629 32.1872 271.629C29.9029 271.629 25.3344 271.629 20.3506 271.837C15.5744 271.837 10.1753 272.252 6.02211 272.252C3.32254 272.252 1.86893 271.629 1.86893 270.173C1.86893 269.134 2.69957 268.51 5.19148 268.51C8.30636 268.51 10.7983 268.094 12.6672 267.679C16.8204 266.847 17.8587 262.273 18.6893 256.244C19.7276 247.512 19.7276 231.088 19.7276 211.962V175.371C19.7276 143.771 19.7276 137.949 19.3123 131.297C18.897 124.228 17.2357 120.902 10.383 119.446C8.72168 119.031 6.22977 118.823 3.5302 118.823C1.24595 118.823 0 118.407 0 116.952C0 115.496 1.45361 115.08 4.5685 115.08C14.3285 115.08 27.411 115.704 33.0178 115.704C38.0016 115.704 53.1607 115.08 61.2594 115.08C64.1666 115.08 65.6203 115.496 65.6203 116.952C65.6203 118.407 64.3743 118.823 61.8824 118.823C59.5981 118.823 56.2756 119.031 53.7837 119.446C48.1769 120.486 46.5156 124.02 46.1003 131.297C45.685 137.949 45.685 143.771 45.685 175.371Z" fill="black"/>
<path d="M174.531 211.962V175.371C174.531 143.771 174.531 137.949 174.116 131.297C173.7 124.228 172.039 120.902 165.186 119.446C163.525 119.031 159.995 118.823 157.088 118.823C154.803 118.823 153.557 118.407 153.557 116.952C153.557 115.496 155.011 115.08 158.126 115.08C163.733 115.08 169.755 115.288 174.946 115.288C180.345 115.496 185.122 115.704 188.029 115.704C194.674 115.704 235.998 115.704 239.944 115.496C243.889 115.08 247.212 114.665 248.873 114.249C249.911 114.041 251.157 113.417 252.195 113.417C253.234 113.417 253.441 114.249 253.441 115.288C253.441 116.744 252.403 119.238 251.78 128.802C251.572 130.881 251.157 140.028 250.742 142.523C250.534 143.563 250.119 144.81 248.665 144.81C247.212 144.81 246.796 143.771 246.796 141.9C246.796 140.444 246.589 136.91 245.55 134.415C244.097 130.673 242.02 128.178 231.637 126.931C228.107 126.515 206.303 126.099 202.15 126.099C201.111 126.099 200.696 126.723 200.696 128.178V180.777C200.696 182.232 200.904 183.064 202.15 183.064C206.718 183.064 230.599 183.064 235.375 182.648C240.359 182.232 243.474 181.608 245.343 179.529C246.796 177.866 247.627 176.827 248.665 176.827C249.496 176.827 250.119 177.242 250.119 178.49C250.119 179.737 249.288 183.064 248.458 193.666C248.25 197.824 247.627 206.14 247.627 207.596C247.627 209.259 247.627 211.546 245.758 211.546C244.304 211.546 243.889 210.714 243.889 209.675C243.681 207.596 243.681 204.893 243.058 202.19C242.02 198.032 239.113 194.914 231.43 194.082C227.484 193.666 206.926 193.459 201.942 193.459C200.904 193.459 200.696 194.29 200.696 195.538V211.962C200.696 219.03 200.488 238.157 200.696 244.186C201.111 258.531 204.434 261.65 225.615 261.65C231.014 261.65 239.736 261.65 245.135 259.155C250.534 256.66 253.026 252.294 254.48 243.77C254.895 241.483 255.31 240.652 256.764 240.652C258.425 240.652 258.425 242.315 258.425 244.394C258.425 249.176 256.764 263.313 255.726 267.471C254.272 272.876 252.403 272.876 244.512 272.876C228.938 272.876 217.516 272.46 208.587 272.252C199.658 271.837 193.22 271.629 186.99 271.629C184.706 271.629 180.138 271.629 175.154 271.837C170.378 271.837 164.979 272.252 160.825 272.252C158.126 272.252 156.672 271.629 156.672 270.173C156.672 269.134 157.503 268.51 159.995 268.51C163.11 268.51 165.602 268.094 167.471 267.679C171.624 266.847 172.662 262.273 173.493 256.244C174.531 247.512 174.531 231.088 174.531 211.962Z" fill="black"/>
<path d="M460.859 235.454V258.323C460.859 263.936 460.651 264.352 458.159 265.808C444.661 272.876 424.311 275.163 408.113 275.163C357.237 275.163 312.175 251.047 312.175 193.666C312.175 160.403 329.411 137.118 348.308 125.683C368.243 113.625 386.724 112.17 404.168 112.17C418.496 112.17 436.77 114.665 440.923 115.496C445.284 116.328 452.552 117.575 457.328 117.783C459.82 117.991 460.236 118.823 460.236 120.278C460.236 122.565 458.782 128.386 458.782 154.373C458.782 157.7 458.159 158.739 456.498 158.739C455.044 158.739 454.629 157.7 454.421 156.037C453.798 151.255 452.76 144.602 447.361 138.781C441.131 132.128 424.518 122.565 401.053 122.565C389.632 122.565 374.473 123.396 359.936 135.455C348.307 145.226 340.832 160.818 340.832 186.39C340.832 231.088 369.281 264.56 413.097 264.56C418.496 264.56 425.764 264.56 430.748 262.273C433.863 260.818 434.694 258.115 434.694 254.581V235.038C434.694 224.643 434.694 216.743 434.486 210.506C434.278 203.438 432.409 200.111 425.557 198.656C423.895 198.24 420.365 198.032 417.458 198.032C415.589 198.032 414.343 197.617 414.343 196.369C414.343 194.706 415.797 194.29 418.704 194.29C429.502 194.29 442.585 194.914 448.815 194.914C455.252 194.914 466.258 194.29 473.111 194.29C475.81 194.29 477.264 194.706 477.264 196.369C477.264 197.617 476.018 198.032 474.564 198.032C472.903 198.032 471.449 198.24 468.957 198.656C463.351 199.696 461.274 203.23 461.066 210.506C460.859 216.743 460.859 225.059 460.859 235.454Z" fill="black"/>
<path d="M602.429 217.991H556.121C555.082 217.991 554.667 218.406 554.252 219.654L543.038 249.383C540.962 254.581 539.923 259.571 539.923 262.065C539.923 265.808 541.792 268.51 548.23 268.51H551.345C553.836 268.51 554.459 268.926 554.459 270.173C554.459 271.837 553.214 272.252 550.929 272.252C544.284 272.252 535.355 271.629 528.917 271.629C526.633 271.629 515.212 272.252 504.414 272.252C501.714 272.252 500.468 271.837 500.468 270.173C500.468 268.926 501.299 268.51 502.96 268.51C504.829 268.51 507.736 268.302 509.397 268.094C518.95 266.847 522.895 259.778 527.048 249.383L579.171 118.823C581.663 112.794 582.909 110.507 584.985 110.507C586.854 110.507 588.1 112.378 590.177 117.159C595.161 128.594 628.386 213.417 641.676 245.018C649.567 263.729 655.589 266.639 659.95 267.679C663.065 268.302 666.18 268.51 668.672 268.51C670.333 268.51 671.371 268.718 671.371 270.173C671.371 271.837 669.503 272.252 661.819 272.252C654.344 272.252 639.184 272.252 622.572 271.837C618.834 271.629 616.342 271.629 616.342 270.173C616.342 268.926 617.172 268.51 619.249 268.302C620.703 267.887 622.156 266.015 621.118 263.521L604.505 219.446C604.09 218.406 603.467 217.991 602.429 217.991ZM560.274 207.596H598.483C599.521 207.596 599.729 206.972 599.521 206.348L580.832 154.997C580.625 154.166 580.417 153.126 579.794 153.126C579.171 153.126 578.756 154.166 578.548 154.997L559.443 206.14C559.236 206.972 559.443 207.596 560.274 207.596Z" fill="black"/>
<path d="M796.63 275.163C768.181 275.163 744.3 268.926 725.403 252.502C705.053 234.623 699.654 211.338 699.654 191.172C699.654 177.035 704.014 152.502 723.95 134.207C738.901 120.486 758.629 112.17 789.57 112.17C802.445 112.17 810.128 113.001 819.681 114.249C827.572 115.288 834.217 117.159 840.446 117.783C842.731 117.991 843.561 119.031 843.561 120.278C843.561 121.941 842.938 124.436 842.523 131.712C842.108 138.573 842.315 150.008 841.9 154.166C841.692 157.284 841.277 158.947 839.408 158.947C837.747 158.947 837.332 157.284 837.332 154.373C837.124 147.929 834.424 140.652 829.233 135.247C822.38 127.97 806.183 122.357 787.078 122.357C769.012 122.357 757.175 126.931 748.038 135.247C732.879 149.176 728.934 168.926 728.934 189.093C728.934 238.573 766.52 263.105 794.346 263.105C812.828 263.105 824.041 261.026 832.348 251.462C835.878 247.512 838.578 241.483 839.408 237.741C840.031 234.415 840.446 233.583 842.108 233.583C843.561 233.583 843.977 235.038 843.977 236.702C843.977 239.196 841.485 257.284 839.408 264.352C838.37 267.887 837.539 268.926 834.009 270.381C825.703 273.708 809.921 275.163 796.63 275.163Z" fill="black"/>
<path d="M944.761 235.454V218.406C944.761 207.18 942.685 202.606 939.985 196.577C938.531 193.251 910.705 147.513 903.437 136.702C898.246 129.01 893.054 123.812 889.109 121.525C886.409 120.07 882.879 118.823 880.387 118.823C878.726 118.823 877.272 118.407 877.272 116.952C877.272 115.704 878.726 115.08 881.217 115.08C884.955 115.08 900.53 115.704 907.383 115.704C911.743 115.704 920.257 115.08 929.602 115.08C931.679 115.08 932.717 115.704 932.717 116.952C932.717 118.199 931.263 118.407 928.148 119.238C926.279 119.654 925.241 121.317 925.241 122.981C925.241 124.644 926.279 127.139 927.733 130.049C930.64 136.286 959.713 186.39 963.035 192.211C965.112 187.222 991.277 141.484 994.184 135.039C996.261 130.465 997.091 126.931 997.091 124.228C997.091 122.149 996.261 119.862 992.73 119.031C990.861 118.615 988.992 118.199 988.992 116.952C988.992 115.496 990.031 115.08 992.523 115.08C999.375 115.08 1006.02 115.704 1012.04 115.704C1016.61 115.704 1030.32 115.08 1034.26 115.08C1036.55 115.08 1038 115.496 1038 116.744C1038 118.199 1036.34 118.823 1034.05 118.823C1031.98 118.823 1028.03 119.654 1024.92 121.317C1020.56 123.396 1018.27 125.891 1013.7 131.505C1006.85 139.821 977.779 188.677 974.041 197.617C970.926 205.101 970.926 211.546 970.926 218.406V235.454C970.926 238.781 970.926 247.512 971.549 256.244C971.964 262.273 973.833 266.847 980.063 267.679C982.97 268.094 987.539 268.51 990.446 268.51C992.73 268.51 993.769 269.134 993.769 270.173C993.769 271.629 992.107 272.252 989.408 272.252C976.325 272.252 963.243 271.629 957.636 271.629C952.445 271.629 939.362 272.252 931.679 272.252C928.771 272.252 927.11 271.837 927.11 270.173C927.11 269.134 928.148 268.51 930.433 268.51C933.34 268.51 935.832 268.094 937.701 267.679C941.854 266.847 943.723 262.273 944.138 256.244C944.761 247.512 944.761 238.781 944.761 235.454Z" fill="black"/>
<path d="M1036.4 297.117L1.59697 297.117C14.6664 301.612 10.3062 306 97.6731 306H940.327C1027.69 306 1023.33 301.612 1036.4 297.117Z" fill="black"/>
<path d="M1036.4 88.5527L1.59697 88.5526C14.6664 84.0576 10.3062 79.6698 97.6731 79.6698H940.327C1027.69 79.6698 1023.33 84.0577 1036.4 88.5527Z" fill="black"/>
<path d="M321.695 39.9217H304.495C304.11 39.9217 303.956 40.0761 303.801 40.5394L299.636 51.5816C298.865 53.5121 298.479 55.3653 298.479 56.2919C298.479 57.6818 299.174 58.6857 301.565 58.6857H302.722C303.647 58.6857 303.878 58.8401 303.878 59.3034C303.878 59.9211 303.416 60.0756 302.567 60.0756C300.099 60.0756 296.783 59.8439 294.392 59.8439C293.543 59.8439 289.301 60.0756 285.29 60.0756C284.288 60.0756 283.825 59.9211 283.825 59.3034C283.825 58.8401 284.134 58.6857 284.751 58.6857C285.445 58.6857 286.525 58.6084 287.142 58.5312C290.689 58.0679 292.155 55.4425 293.697 51.5816L313.057 3.08872C313.982 0.849396 314.445 0 315.216 0C315.911 0 316.373 0.694962 317.145 2.47098C318.996 6.71796 331.336 38.2229 336.273 49.96C339.203 56.9096 341.44 57.9907 343.06 58.3768C344.217 58.6084 345.374 58.6857 346.299 58.6857C346.916 58.6857 347.302 58.7629 347.302 59.3034C347.302 59.9211 346.608 60.0756 343.754 60.0756C340.977 60.0756 335.347 60.0756 329.177 59.9211C327.788 59.8439 326.863 59.8439 326.863 59.3034C326.863 58.8401 327.171 58.6857 327.943 58.6084C328.483 58.454 329.022 57.759 328.637 56.8324L322.466 40.4622C322.312 40.0761 322.081 39.9217 321.695 39.9217ZM306.038 36.0608H320.23C320.615 36.0608 320.693 35.8291 320.615 35.5975L313.674 16.5246C313.597 16.2158 313.52 15.8297 313.288 15.8297C313.057 15.8297 312.903 16.2158 312.825 16.5246L305.73 35.5203C305.652 35.8291 305.73 36.0608 306.038 36.0608Z" fill="black"/>
<path d="M366.214 37.6824V24.092C366.214 12.3549 366.214 10.1928 366.059 7.7218C365.905 5.09639 365.288 3.8609 362.743 3.32037C362.126 3.16594 360.815 3.08872 359.735 3.08872C358.886 3.08872 358.424 2.93428 358.424 2.39376C358.424 1.85323 358.963 1.6988 360.12 1.6988C364.208 1.6988 369.067 1.93045 370.687 1.93045C373.309 1.93045 379.171 1.6988 381.562 1.6988C386.421 1.6988 391.589 2.1621 395.754 5.01917C397.913 6.48631 400.999 10.4244 400.999 15.598C400.999 21.3122 398.608 26.563 390.818 32.8949C397.682 41.5433 403.004 48.4157 407.555 53.2032C411.874 57.6818 415.036 58.2223 416.193 58.454C417.041 58.6084 417.736 58.6857 418.353 58.6857C418.97 58.6857 419.278 58.9173 419.278 59.3034C419.278 59.9211 418.738 60.0756 417.813 60.0756H410.485C406.166 60.0756 404.238 59.6895 402.233 58.6084C398.916 56.8324 395.985 53.2032 391.666 47.2574C388.581 43.0104 385.033 37.7596 384.03 36.6013C383.645 36.138 383.182 36.0608 382.642 36.0608L375.932 35.9064C375.546 35.9064 375.315 36.0608 375.315 36.5241V37.6052C375.315 44.7864 375.315 50.8866 375.7 54.1298C375.932 56.3691 376.395 58.0679 378.708 58.3768C379.865 58.5312 381.562 58.6857 382.488 58.6857C383.105 58.6857 383.413 58.9173 383.413 59.3034C383.413 59.8439 382.873 60.0756 381.871 60.0756C377.397 60.0756 371.69 59.8439 370.533 59.8439C369.067 59.8439 364.208 60.0756 361.123 60.0756C360.12 60.0756 359.58 59.8439 359.58 59.3034C359.58 58.9173 359.889 58.6857 360.815 58.6857C361.971 58.6857 362.897 58.5312 363.591 58.3768C365.134 58.0679 365.519 56.3691 365.828 54.1298C366.214 50.8866 366.214 44.7864 366.214 37.6824ZM375.315 6.71796V30.1922C375.315 31.0416 375.469 31.3505 376.009 31.5821C377.629 32.1227 379.942 32.3543 381.871 32.3543C384.956 32.3543 385.958 32.0455 387.347 31.0416C389.661 29.3428 391.897 25.7908 391.897 19.4589C391.897 8.49398 384.647 5.32804 380.097 5.32804C378.168 5.32804 376.78 5.40526 376.009 5.63691C375.469 5.79135 375.315 6.10022 375.315 6.71796Z" fill="black"/>
<path d="M430.453 52.3538L438.088 2.00767C438.32 0.694962 438.783 0 439.4 0C440.017 0 440.479 0.38609 441.482 2.39376L462.538 45.9447L483.517 1.85323C484.134 0.617745 484.52 0 485.214 0C485.908 0 486.371 0.772179 486.602 2.39376L493.621 50.1145C494.315 54.9792 495.087 57.2185 497.4 57.9135C499.637 58.6084 501.18 58.6857 502.182 58.6857C502.877 58.6857 503.416 58.7629 503.416 59.2262C503.416 59.8439 502.491 60.0756 501.411 60.0756C499.483 60.0756 488.839 59.8439 485.754 59.6123C483.98 59.4578 483.517 59.2262 483.517 58.7629C483.517 58.3768 483.826 58.1451 484.366 57.9135C484.828 57.759 485.06 56.7552 484.751 54.5931L480.124 20.6172H479.815L463.001 55.6742C461.227 59.3034 460.841 59.9984 460.147 59.9984C459.453 59.9984 458.682 58.454 457.448 56.1375C455.597 52.5854 449.503 40.7711 448.578 38.609C447.884 36.9874 443.256 27.2579 440.557 21.4666H440.248L436.237 52.1993C436.083 53.5893 436.006 54.5931 436.006 55.8286C436.006 57.2957 437.009 57.9907 438.32 58.2996C439.708 58.6084 440.788 58.6857 441.559 58.6857C442.176 58.6857 442.716 58.8401 442.716 59.2262C442.716 59.9211 442.022 60.0756 440.865 60.0756C437.626 60.0756 434.155 59.8439 432.767 59.8439C431.301 59.8439 427.599 60.0756 425.131 60.0756C424.36 60.0756 423.742 59.9211 423.742 59.2262C423.742 58.8401 424.205 58.6857 424.977 58.6857C425.594 58.6857 426.133 58.6857 427.29 58.454C429.45 57.9907 430.067 54.9792 430.453 52.3538Z" fill="black"/>
<path d="M547.514 39.9217H530.314C529.928 39.9217 529.774 40.0761 529.62 40.5394L525.455 51.5816C524.683 53.5121 524.298 55.3653 524.298 56.2919C524.298 57.6818 524.992 58.6857 527.383 58.6857H528.54C529.465 58.6857 529.697 58.8401 529.697 59.3034C529.697 59.9211 529.234 60.0756 528.386 60.0756C525.918 60.0756 522.601 59.8439 520.21 59.8439C519.362 59.8439 515.12 60.0756 511.109 60.0756C510.106 60.0756 509.643 59.9211 509.643 59.3034C509.643 58.8401 509.952 58.6857 510.569 58.6857C511.263 58.6857 512.343 58.6084 512.96 58.5312C516.508 58.0679 517.973 55.4425 519.516 51.5816L538.875 3.08872C539.801 0.849396 540.263 0 541.035 0C541.729 0 542.192 0.694962 542.963 2.47098C544.814 6.71796 557.155 38.2229 562.091 49.96C565.022 56.9096 567.258 57.9907 568.878 58.3768C570.035 58.6084 571.192 58.6857 572.118 58.6857C572.735 58.6857 573.12 58.7629 573.12 59.3034C573.12 59.9211 572.426 60.0756 569.572 60.0756C566.796 60.0756 561.165 60.0756 554.995 59.9211C553.607 59.8439 552.681 59.8439 552.681 59.3034C552.681 58.8401 552.99 58.6857 553.761 58.6084C554.301 58.454 554.841 57.759 554.455 56.8324L548.285 40.4622C548.131 40.0761 547.899 39.9217 547.514 39.9217ZM531.856 36.0608H546.048C546.434 36.0608 546.511 35.8291 546.434 35.5975L539.492 16.5246C539.415 16.2158 539.338 15.8297 539.107 15.8297C538.875 15.8297 538.721 16.2158 538.644 16.5246L531.548 35.5203C531.471 35.8291 531.548 36.0608 531.856 36.0608Z" fill="black"/>
<path d="M592.032 37.6824V24.092C592.032 12.3549 592.032 10.1928 591.878 7.7218C591.723 5.09639 591.106 3.8609 588.561 3.32037C587.944 3.16594 586.633 3.08872 585.553 3.08872C584.705 3.08872 584.242 2.93428 584.242 2.39376C584.242 1.85323 584.782 1.6988 585.939 1.6988C590.027 1.6988 594.886 1.93045 597.045 1.93045C599.436 1.93045 604.295 1.6988 608.923 1.6988C618.564 1.6988 631.445 1.6988 639.852 10.5016C643.708 14.517 647.333 20.9261 647.333 30.115C647.333 39.8445 643.245 47.2574 638.926 51.6588C635.378 55.2881 627.357 60.7705 613.088 60.7705C610.311 60.7705 607.149 60.5389 604.218 60.3072C601.287 60.0756 598.588 59.8439 596.66 59.8439C595.811 59.8439 594.114 59.8439 592.263 59.9211C590.489 59.9211 588.484 60.0756 586.941 60.0756C585.939 60.0756 585.399 59.8439 585.399 59.3034C585.399 58.9173 585.707 58.6857 586.633 58.6857C587.79 58.6857 588.715 58.5312 589.409 58.3768C590.952 58.0679 591.338 56.3691 591.646 54.1298C592.032 50.8866 592.032 44.7864 592.032 37.6824ZM601.673 22.8565V32.586C601.673 40.7711 601.75 46.7169 601.827 48.184C601.904 50.1145 602.059 53.2032 602.676 54.0526C603.678 55.5197 606.686 57.1413 612.779 57.1413C620.647 57.1413 625.891 55.5969 630.519 51.5816C635.455 47.3346 636.998 40.3078 636.998 32.3543C636.998 22.5476 632.91 16.2158 629.594 13.0498C622.498 6.25466 613.705 5.32804 607.689 5.32804C606.146 5.32804 603.293 5.5597 602.676 5.86856C601.982 6.17744 601.75 6.56353 601.75 7.41293C601.673 10.0383 601.673 16.7563 601.673 22.8565Z" fill="black"/>
<path d="M695.272 39.9217H678.073C677.687 39.9217 677.533 40.0761 677.378 40.5394L673.214 51.5816C672.442 53.5121 672.057 55.3653 672.057 56.2919C672.057 57.6818 672.751 58.6857 675.142 58.6857H676.299C677.224 58.6857 677.456 58.8401 677.456 59.3034C677.456 59.9211 676.993 60.0756 676.144 60.0756C673.676 60.0756 670.36 59.8439 667.969 59.8439C667.12 59.8439 662.878 60.0756 658.868 60.0756C657.865 60.0756 657.402 59.9211 657.402 59.3034C657.402 58.8401 657.711 58.6857 658.328 58.6857C659.022 58.6857 660.102 58.6084 660.719 58.5312C664.267 58.0679 665.732 55.4425 667.275 51.5816L686.634 3.08872C687.559 0.849396 688.022 0 688.794 0C689.488 0 689.95 0.694962 690.722 2.47098C692.573 6.71796 704.913 38.2229 709.85 49.96C712.781 56.9096 715.017 57.9907 716.637 58.3768C717.794 58.6084 718.951 58.6857 719.876 58.6857C720.493 58.6857 720.879 58.7629 720.879 59.3034C720.879 59.9211 720.185 60.0756 717.331 60.0756C714.555 60.0756 708.924 60.0756 702.754 59.9211C701.365 59.8439 700.44 59.8439 700.44 59.3034C700.44 58.8401 700.748 58.6857 701.52 58.6084C702.06 58.454 702.599 57.759 702.214 56.8324L696.044 40.4622C695.889 40.0761 695.658 39.9217 695.272 39.9217ZM679.615 36.0608H693.807C694.193 36.0608 694.27 35.8291 694.192 35.5975L687.251 16.5246C687.174 16.2158 687.097 15.8297 686.865 15.8297C686.634 15.8297 686.48 16.2158 686.403 16.5246L679.307 35.5203C679.23 35.8291 679.307 36.0608 679.615 36.0608Z" fill="black"/>
</svg>