<svg width="1949" height="574" viewBox="0 0 1949 574" fill="none" xmlns="http://www.w3.org/2000/svg">
<path d="M223.218 564.922H0.745117C11.1564 558.881 14.4442 545.152 14.4442 524.284V214.562C14.4442 193.694 11.1564 179.966 0.745117 173.925H118.557C108.146 179.966 104.858 193.694 104.858 214.562V480.352H182.121C199.108 480.352 212.259 473.762 223.218 461.132V564.922Z" fill="#050706"/>
<path d="M265.184 524.284V214.562C265.184 195.342 262.444 182.162 249.841 175.023V173.925H488.205V277.715C477.246 265.084 464.095 258.494 447.108 258.494H355.598V327.138H416.97C432.313 327.138 439.437 317.803 447.656 307.918V430.928C439.437 421.044 432.313 411.708 416.97 411.708H355.598V480.352H448.752C465.739 480.352 478.89 473.762 489.849 461.132V564.922H251.485C261.896 558.881 265.184 545.152 265.184 524.284Z" fill="#050706"/>
<path d="M868.355 324.942V480.901C868.355 500.671 870.547 507.261 880.41 514.949C840.409 553.389 789.449 573.708 724.789 573.708C610.264 573.708 516.563 486.393 516.563 369.423C516.563 252.454 610.264 165.138 724.789 165.138C753.283 165.138 779.037 176.121 791.092 176.121C801.504 176.121 808.627 171.179 814.655 165.138V292.542C789.996 270.576 764.242 255.749 724.789 255.749C660.129 255.749 610.812 297.484 610.812 369.423C610.812 434.223 660.677 483.098 724.789 483.098C747.255 483.098 763.694 478.705 777.941 473.213V415.552H702.322C688.623 415.552 682.596 421.593 674.924 429.83V310.664C682.596 318.901 688.623 324.942 702.322 324.942H868.355Z" fill="#050706"/>
<path d="M1042.4 423.789H1123.5L1083.5 294.189H1082.41L1042.4 423.789ZM1149.26 502.867H1014.46L1005.14 527.03C1002.4 534.169 1001.31 538.562 1001.31 545.152C1001.31 553.938 1004.59 558.881 1010.07 564.922H884.591C890.071 561.078 895.002 553.939 897.194 547.898L1025.97 224.996C1031.99 209.62 1035.83 199.186 1035.83 193.694C1035.83 184.908 1032.54 179.966 1027.06 173.925H1120.76L1260.49 536.915C1264.88 548.447 1272 558.332 1278.03 564.922H1153.64C1159.12 558.881 1162.41 553.938 1162.41 545.152C1162.41 538.562 1161.31 534.169 1158.57 527.03L1149.26 502.867Z" fill="#050706"/>
<path d="M1553.95 450.149V573.708C1551.21 572.061 1543.54 566.569 1537.51 566.569C1527.1 566.569 1494.22 573.708 1464.09 573.708C1341.89 573.708 1255.86 486.393 1255.86 369.423C1255.86 252.454 1341.89 165.138 1464.09 165.138C1492.58 165.138 1518.33 176.121 1530.39 176.121C1540.8 176.121 1547.92 171.179 1553.95 165.138V292.542C1529.29 270.576 1503.54 255.749 1464.09 255.749C1399.43 255.749 1350.11 297.484 1350.11 369.423C1350.11 434.223 1399.97 483.098 1464.09 483.098C1501.9 483.098 1527.65 471.016 1553.95 450.149Z" fill="#050706"/>
<path d="M1820.72 564.922H1702.9C1713.31 558.881 1716.6 545.152 1716.6 524.284V387.545L1631.12 250.257C1615.23 224.447 1587.28 186.006 1579.06 173.925H1714.41C1708.93 178.867 1705.1 183.81 1705.1 191.498C1705.1 196.989 1708.38 203.579 1714.96 215.66L1763.18 302.976H1764.28L1810.3 214.013C1815.78 203.579 1818.52 197.538 1818.52 191.498C1818.52 183.81 1814.69 178.867 1809.21 173.925H1948.94C1941.82 179.966 1934.69 188.203 1927.02 199.735L1807.02 387.545V524.284C1807.02 545.152 1810.3 558.881 1820.72 564.922Z" fill="#050706"/>
<path d="M1912.4 89.6549L1364.06 105.231L1354.06 74.0789L1912.4 89.6549Z" fill="#050706"/>
<path d="M37.2887 89.6549L595.627 74.0789L585.627 105.231L37.2887 89.6549Z" fill="#050706"/>
<path fill-rule="evenodd" clip-rule="evenodd" d="M801.368 0.291992C815.169 0.292092 826.375 3.82865 834.698 11.1666L835.385 11.7856C842.362 18.2261 845.939 26.0674 845.939 35.201C845.939 42.2024 843.648 48.7272 839.18 54.7236L839.181 54.7248C835.337 59.9141 830.21 63.7326 823.889 66.209L830.169 75.9651H855.082V0.291992H899.99L914.547 58.5205L931.44 0.291992H976.278V105.231H936.211V70.2107L936.222 70.1007L936.27 69.5812L926.963 105.231H901.637L892.33 69.587L892.378 70.1007L892.387 70.2107V105.231H808.015L791.759 72.7181H784.747V105.231H747.595V0.291992H801.368ZM784.747 43.6934H796C799.39 43.6932 801.728 42.8754 803.312 41.5288C805.012 39.9807 805.719 38.3581 805.719 36.5817C805.719 35.0312 805.115 33.5396 803.602 32.0594L803.288 31.7634C801.703 30.3292 799.375 29.469 796 29.4688H784.747V43.6934Z" fill="#050706"/>
<path fill-rule="evenodd" clip-rule="evenodd" d="M740.816 105.231H700.417L696.583 91.7353H669.991L666.158 105.231H625.758L665.452 0.291992H701.123L740.816 105.231ZM676.706 67.9255H689.881L683.345 44.1696L676.706 67.9255Z" fill="#050706"/>
<path fill-rule="evenodd" clip-rule="evenodd" d="M1097.57 105.231H1057.17L1053.33 91.7353H1026.74L1022.91 105.231H982.508L1022.2 0.291992H1057.87L1097.57 105.231ZM1033.46 67.9255H1046.63L1040.09 44.1696L1033.46 67.9255Z" fill="#050706"/>
<path fill-rule="evenodd" clip-rule="evenodd" d="M1157.5 0.291992C1169.07 0.292158 1179.35 4.04448 1188.28 11.4966L1189.14 12.2302L1189.14 12.2337L1189.66 12.6982C1200.56 22.5003 1205.91 35.9833 1205.91 52.8386C1205.91 69.9578 1200.39 83.5527 1189.14 93.2915L1189.14 93.2926C1180.02 101.232 1169.44 105.231 1157.5 105.231H1103.73V0.291992H1157.5ZM1140.88 76.054H1146.62C1153.06 76.0538 1157.65 74.1305 1160.76 70.5804L1160.77 70.5781L1161.07 70.2271C1164.12 66.5329 1165.84 60.8677 1165.84 52.8386C1165.84 44.4336 1164 38.6871 1160.79 35.1203L1160.77 35.0969L1160.75 35.0735C1157.62 31.4305 1153.04 29.469 1146.62 29.4688H1140.88V76.054Z" fill="#050706"/>
<path fill-rule="evenodd" clip-rule="evenodd" d="M1324.1 105.064V105.231H1283.77L1279.93 91.7353H1253.34L1249.51 105.231H1209.11L1248.8 0.291992H1284.47L1324.1 105.064ZM1260.06 67.9255H1273.23L1266.69 44.1696L1260.06 67.9255Z" fill="#050706"/>
</svg>
