<svg width="300" height="301" viewBox="0 0 300 301" fill="none" xmlns="http://www.w3.org/2000/svg">
<path fill-rule="evenodd" clip-rule="evenodd" d="M298.571 166.936C290.407 241.916 226.884 300.271 149.732 300.271C149.05 300.271 148.37 300.266 147.69 300.257C104.778 299.679 66.2251 281.048 39.2808 251.613H39.2628C36.5037 248.599 33.8664 245.472 31.3585 242.239H31.3765C18.5726 225.734 9.14451 206.479 4.12805 185.51H4.10992C2.66098 179.453 1.58009 173.253 0.892202 166.936H298.571ZM132.667 278.148V251.613H70.0191C87.7271 265.602 109.199 275.036 132.667 278.148ZM132.667 242.239V185.51H25.8289C31.9694 207.316 43.711 226.777 59.4026 242.239H132.667ZM258.465 219.506C238.035 251.646 203.744 274.112 164.006 278.491V219.506H258.465ZM164.006 210.132H263.884C267.951 202.358 271.247 194.117 273.671 185.51H164.006L164.006 210.132Z" fill="white"/>
<path fill-rule="evenodd" clip-rule="evenodd" d="M299.44 148.188H0.0234375C0.117205 142.112 0.572889 136.123 1.36988 130.244H1.3881C3.79153 112.513 9.29871 95.7684 17.3446 80.5746H17.3263C19.0182 77.3796 20.8224 74.2531 22.7336 71.2004H22.752C49.2171 28.9299 96.2006 0.818359 149.75 0.818359C150.431 0.818359 151.112 0.822913 151.791 0.831992C232.749 1.9235 298.191 67.268 299.44 148.188ZM22.6152 130.244H221.886L221.886 80.5746H158.477C158.478 80.6694 158.479 80.7643 158.479 80.8593C158.48 80.9364 158.48 81.0135 158.48 81.0908C158.48 103.269 140.501 121.249 118.322 121.249C96.1435 121.249 78.1643 103.269 78.1643 81.0908C78.1643 80.9185 78.1653 80.7464 78.1675 80.5746H41.6823C32.1125 95.3248 25.4804 112.157 22.6152 130.244ZM146.48 81.0908C146.48 80.9183 146.478 80.7463 146.475 80.5746C146.416 77.2808 145.791 74.1251 144.694 71.2004C140.69 60.5283 130.393 52.9329 118.322 52.9329C106.251 52.9329 95.9545 60.5283 91.9502 71.2004C90.8529 74.1251 90.2281 77.2808 90.1689 80.5746C90.1658 80.7463 90.1643 80.9183 90.1643 81.0908C90.1643 96.6419 102.771 109.249 118.322 109.249C133.873 109.249 146.48 96.6419 146.48 81.0908ZM118.322 40.9329C137.088 40.9329 152.847 53.8045 157.253 71.2004H251.122C227.558 41.1364 190.91 21.8184 149.75 21.8184C108.59 21.8184 71.9414 41.1364 48.3772 71.2004H79.3913C83.7972 53.8045 99.5565 40.9329 118.322 40.9329Z" fill="white"/>
</svg>
