<svg width="109" height="32" viewBox="0 0 109 32" fill="none" xmlns="http://www.w3.org/2000/svg">
<path d="M4.78304 18.3395V22.1659C4.78304 24.9488 4.78304 26.4489 5.23961 26.8403C5.60921 27.1664 6.17448 27.3186 7.87028 27.3186C9.02256 27.3186 9.87047 27.2968 10.414 26.7098C10.6749 26.4272 10.9358 25.8184 10.9793 25.4053C11.001 25.2097 11.0445 25.0792 11.2184 25.0792C11.3706 25.0792 11.3923 25.1879 11.3923 25.4488C11.3923 25.688 11.2402 27.3186 11.0662 27.9491C10.9358 28.4274 10.8271 28.5361 9.69654 28.5361C8.13118 28.5361 7.00064 28.4926 6.02229 28.4708C5.04394 28.4274 4.26126 28.4056 3.36987 28.4056C3.13072 28.4056 2.65242 28.4056 2.13063 28.4274C1.63058 28.4274 1.06531 28.4708 0.630492 28.4708C0.347858 28.4708 0.19567 28.4056 0.19567 28.2534C0.19567 28.1447 0.282634 28.0795 0.543528 28.0795C0.869644 28.0795 1.13054 28.036 1.32621 27.9925C1.76103 27.9056 1.86974 27.4273 1.9567 26.7968C2.06541 25.8836 2.06541 24.1661 2.06541 22.1659V18.3395C2.06541 15.0348 2.06541 14.4261 2.02192 13.7304C1.97844 12.9912 1.80451 12.6433 1.08706 12.4911C0.913127 12.4476 0.652233 12.4259 0.369599 12.4259C0.130447 12.4259 0 12.3824 0 12.2302C0 12.078 0.152188 12.0346 0.478304 12.0346C1.50014 12.0346 2.86983 12.0998 3.45684 12.0998C3.97862 12.0998 5.56572 12.0346 6.41363 12.0346C6.718 12.0346 6.87019 12.078 6.87019 12.2302C6.87019 12.3824 6.73975 12.4259 6.47885 12.4259C6.2397 12.4259 5.89184 12.4476 5.63095 12.4911C5.04394 12.5998 4.87001 12.9694 4.82653 13.7304C4.78304 14.4261 4.78304 15.0348 4.78304 18.3395Z" fill="black"/>
<path d="M18.2727 22.1659V18.3395C18.2727 15.0348 18.2727 14.4261 18.2292 13.7304C18.1858 12.9912 18.0118 12.6433 17.2944 12.4911C17.1204 12.4476 16.7508 12.4259 16.4465 12.4259C16.2073 12.4259 16.0769 12.3824 16.0769 12.2302C16.0769 12.078 16.2291 12.0346 16.5552 12.0346C17.1422 12.0346 17.7727 12.0563 18.3162 12.0563C18.8815 12.078 19.3815 12.0998 19.6859 12.0998C20.3816 12.0998 24.7081 12.0998 25.1212 12.078C25.5343 12.0346 25.8821 11.9911 26.056 11.9476C26.1647 11.9259 26.2952 11.8606 26.4039 11.8606C26.5126 11.8606 26.5343 11.9476 26.5343 12.0563C26.5343 12.2085 26.4256 12.4694 26.3604 13.4695C26.3387 13.6869 26.2952 14.6435 26.2517 14.9044C26.23 15.0131 26.1865 15.1435 26.0343 15.1435C25.8821 15.1435 25.8386 15.0348 25.8386 14.8392C25.8386 14.687 25.8169 14.3174 25.7082 14.0565C25.556 13.6651 25.3386 13.4042 24.2515 13.2738C23.8819 13.2303 21.5991 13.1868 21.1643 13.1868C21.0556 13.1868 21.0121 13.2521 21.0121 13.4042V18.9048C21.0121 19.0569 21.0338 19.1439 21.1643 19.1439C21.6426 19.1439 24.1428 19.1439 24.6429 19.1004C25.1647 19.0569 25.4908 18.9917 25.6864 18.7743C25.8386 18.6004 25.9256 18.4917 26.0343 18.4917C26.1213 18.4917 26.1865 18.5352 26.1865 18.6656C26.1865 18.796 26.0995 19.1439 26.0126 20.2527C25.9908 20.6875 25.9256 21.5572 25.9256 21.7094C25.9256 21.8833 25.9256 22.1224 25.7299 22.1224C25.5777 22.1224 25.5343 22.0355 25.5343 21.9268C25.5125 21.7094 25.5125 21.4267 25.4473 21.1441C25.3386 20.7093 25.0342 20.3831 24.2298 20.2962C23.8167 20.2527 21.6643 20.231 21.1426 20.231C21.0338 20.231 21.0121 20.3179 21.0121 20.4484V22.1659C21.0121 22.9051 20.9904 24.9053 21.0121 25.5358C21.0556 27.0359 21.4034 27.362 23.621 27.362C24.1863 27.362 25.0994 27.362 25.6647 27.1012C26.23 26.8403 26.4909 26.3837 26.6431 25.4923C26.6865 25.2532 26.73 25.1662 26.8822 25.1662C27.0561 25.1662 27.0561 25.3401 27.0561 25.5575C27.0561 26.0576 26.8822 27.536 26.7735 27.9708C26.6213 28.5361 26.4256 28.5361 25.5995 28.5361C23.9689 28.5361 22.7731 28.4926 21.8383 28.4708C20.9034 28.4274 20.2294 28.4056 19.5772 28.4056C19.338 28.4056 18.8597 28.4056 18.3379 28.4274C17.8379 28.4274 17.2726 28.4708 16.8378 28.4708C16.5552 28.4708 16.403 28.4056 16.403 28.2534C16.403 28.1447 16.49 28.0795 16.7508 28.0795C17.077 28.0795 17.3379 28.036 17.5335 27.9925C17.9684 27.9056 18.0771 27.4273 18.164 26.7968C18.2727 25.8836 18.2727 24.1661 18.2727 22.1659Z" fill="black"/>
<path d="M48.2502 24.6227V27.0142C48.2502 27.6012 48.2284 27.6447 47.9675 27.7969C46.5543 28.5361 44.4237 28.7752 42.7279 28.7752C37.4013 28.7752 32.6835 26.2532 32.6835 20.2527C32.6835 16.7741 34.488 14.3391 36.4665 13.1434C38.5536 11.8824 40.4886 11.7302 42.3148 11.7302C43.815 11.7302 45.7282 11.9911 46.163 12.078C46.6196 12.165 47.3805 12.2955 47.8806 12.3172C48.1414 12.3389 48.1849 12.4259 48.1849 12.5781C48.1849 12.8172 48.0327 13.426 48.0327 16.1436C48.0327 16.4915 47.9675 16.6002 47.7936 16.6002C47.6414 16.6002 47.5979 16.4915 47.5762 16.3176C47.511 15.8175 47.4023 15.1218 46.837 14.513C46.1848 13.8173 44.4455 12.8172 41.9887 12.8172C40.793 12.8172 39.2058 12.9042 37.684 14.1652C36.4665 15.187 35.6838 16.8176 35.6838 19.4918C35.6838 24.1661 38.6623 27.6664 43.2497 27.6664C43.815 27.6664 44.5759 27.6664 45.0977 27.4273C45.4238 27.2751 45.5108 26.9924 45.5108 26.6228V24.5792C45.5108 23.4921 45.5108 22.666 45.489 22.0137C45.4673 21.2745 45.2716 20.9267 44.5542 20.7745C44.3802 20.731 44.0106 20.7093 43.7063 20.7093C43.5106 20.7093 43.3801 20.6658 43.3801 20.5353C43.3801 20.3614 43.5323 20.3179 43.8367 20.3179C44.9672 20.3179 46.3369 20.3831 46.9892 20.3831C47.6631 20.3831 48.8154 20.3179 49.5329 20.3179C49.8155 20.3179 49.9677 20.3614 49.9677 20.5353C49.9677 20.6658 49.8373 20.7093 49.6851 20.7093C49.5111 20.7093 49.359 20.731 49.0981 20.7745C48.511 20.8832 48.2936 21.2528 48.2719 22.0137C48.2502 22.666 48.2502 23.5356 48.2502 24.6227Z" fill="black"/>
<path d="M63.072 22.7964H58.2237C58.115 22.7964 58.0715 22.8399 58.028 22.9703L56.854 26.0793C56.6366 26.6228 56.5279 27.1446 56.5279 27.4055C56.5279 27.7969 56.7236 28.0795 57.3976 28.0795H57.7237C57.9846 28.0795 58.0498 28.123 58.0498 28.2534C58.0498 28.4274 57.9193 28.4708 57.6802 28.4708C56.9845 28.4708 56.0496 28.4056 55.3756 28.4056C55.1365 28.4056 53.9407 28.4708 52.8102 28.4708C52.5276 28.4708 52.3971 28.4274 52.3971 28.2534C52.3971 28.123 52.4841 28.0795 52.658 28.0795C52.8537 28.0795 53.158 28.0578 53.332 28.036C54.3321 27.9056 54.7451 27.1664 55.18 26.0793L60.637 12.4259C60.8979 11.7954 61.0283 11.5563 61.2457 11.5563C61.4414 11.5563 61.5719 11.7519 61.7893 12.252C62.3111 13.4477 65.7896 22.3181 67.1811 25.6228C68.0072 27.5795 68.6377 27.8838 69.0943 27.9925C69.4204 28.0578 69.7465 28.0795 70.0074 28.0795C70.1813 28.0795 70.29 28.1012 70.29 28.2534C70.29 28.4274 70.0944 28.4708 69.29 28.4708C68.5073 28.4708 66.9202 28.4708 65.1809 28.4274C64.7895 28.4056 64.5286 28.4056 64.5286 28.2534C64.5286 28.123 64.6156 28.0795 64.833 28.0578C64.9852 28.0143 65.1374 27.8186 65.0287 27.5577L63.2894 22.9486C63.2459 22.8399 63.1807 22.7964 63.072 22.7964ZM58.6585 21.7094H62.6589C62.7676 21.7094 62.7894 21.6441 62.7676 21.5789L60.8109 16.2089C60.7892 16.1219 60.7674 16.0132 60.7022 16.0132C60.637 16.0132 60.5935 16.1219 60.5718 16.2089L58.5716 21.5572C58.5498 21.6441 58.5716 21.7094 58.6585 21.7094Z" fill="black"/>
<path d="M83.4042 28.7752C80.4256 28.7752 77.9254 28.123 75.947 26.4054C73.8163 24.5357 73.2511 22.1007 73.2511 19.9918C73.2511 18.5134 73.7076 15.948 75.7948 14.0347C77.3601 12.5998 79.4255 11.7302 82.665 11.7302C84.0129 11.7302 84.8173 11.8171 85.8174 11.9476C86.6436 12.0563 87.3393 12.252 87.9915 12.3172C88.2307 12.3389 88.3177 12.4476 88.3177 12.5781C88.3177 12.752 88.2524 13.0129 88.209 13.7738C88.1655 14.4913 88.1872 15.6871 88.1437 16.1219C88.122 16.448 88.0785 16.6219 87.8828 16.6219C87.7089 16.6219 87.6654 16.448 87.6654 16.1436C87.6437 15.4697 87.3611 14.7087 86.8175 14.1434C86.1001 13.3825 84.4043 12.7955 82.4041 12.7955C80.5126 12.7955 79.2734 13.2738 78.3168 14.1434C76.7297 15.6001 76.3166 17.6655 76.3166 19.7744C76.3166 24.9488 80.2517 27.5142 83.165 27.5142C85.1 27.5142 86.274 27.2968 87.1436 26.2967C87.5132 25.8837 87.7959 25.2532 87.8828 24.8618C87.9481 24.514 87.9915 24.427 88.1655 24.427C88.3177 24.427 88.3611 24.5792 88.3611 24.7531C88.3611 25.014 88.1003 26.9055 87.8828 27.6447C87.7741 28.0143 87.6872 28.123 87.3176 28.2752C86.4479 28.623 84.7956 28.7752 83.4042 28.7752Z" fill="black"/>
<path d="M98.9129 24.6227V22.8399C98.9129 21.6659 98.6955 21.1876 98.4128 20.5571C98.2607 20.2092 95.3474 15.4262 94.5864 14.2956C94.0429 13.4912 93.4994 12.9477 93.0863 12.7085C92.8036 12.5563 92.434 12.4259 92.1732 12.4259C91.9992 12.4259 91.847 12.3824 91.847 12.2302C91.847 12.0998 91.9992 12.0346 92.2601 12.0346C92.6515 12.0346 94.282 12.0998 94.9995 12.0998C95.4561 12.0998 96.3474 12.0346 97.3258 12.0346C97.5432 12.0346 97.6519 12.0998 97.6519 12.2302C97.6519 12.3607 97.4997 12.3824 97.1736 12.4694C96.9779 12.5129 96.8692 12.6868 96.8692 12.8607C96.8692 13.0347 96.9779 13.2955 97.1301 13.5999C97.4345 14.2522 100.478 19.4918 100.826 20.1005C101.044 19.5787 103.783 14.7957 104.087 14.1217C104.305 13.6434 104.392 13.2738 104.392 12.9912C104.392 12.7738 104.305 12.5346 103.935 12.4476C103.739 12.4042 103.544 12.3607 103.544 12.2302C103.544 12.078 103.652 12.0346 103.913 12.0346C104.631 12.0346 105.327 12.0998 105.957 12.0998C106.435 12.0998 107.87 12.0346 108.283 12.0346C108.522 12.0346 108.675 12.078 108.675 12.2085C108.675 12.3607 108.501 12.4259 108.262 12.4259C108.044 12.4259 107.631 12.5129 107.305 12.6868C106.848 12.9042 106.609 13.1651 106.131 13.7521C105.413 14.6218 102.37 19.7309 101.978 20.6658C101.652 21.4485 101.652 22.1224 101.652 22.8399V24.6227C101.652 24.9705 101.652 25.8836 101.718 26.7968C101.761 27.4273 101.957 27.9056 102.609 27.9925C102.913 28.036 103.392 28.0795 103.696 28.0795C103.935 28.0795 104.044 28.1447 104.044 28.2534C104.044 28.4056 103.87 28.4708 103.587 28.4708C102.218 28.4708 100.848 28.4056 100.261 28.4056C99.7173 28.4056 98.3476 28.4708 97.5432 28.4708C97.2388 28.4708 97.0649 28.4274 97.0649 28.2534C97.0649 28.1447 97.1736 28.0795 97.4128 28.0795C97.7171 28.0795 97.978 28.036 98.1737 27.9925C98.6085 27.9056 98.8042 27.4273 98.8477 26.7968C98.9129 25.8836 98.9129 24.9705 98.9129 24.6227Z" fill="black"/>
<path d="M108.507 31.0711L0.167197 31.0711C1.53552 31.5411 1.07902 32 10.226 32H98.4486C107.596 32 107.139 31.5411 108.507 31.0711Z" fill="black"/>
<path d="M108.507 9.26041L0.167197 9.2604C1.53552 8.79034 1.07902 8.33148 10.226 8.33148H98.4486C107.596 8.33148 107.139 8.79035 108.507 9.26041Z" fill="black"/>
<path d="M33.6803 4.17482H31.8795C31.8391 4.17482 31.823 4.19097 31.8068 4.23942L31.3708 5.39415C31.29 5.59603 31.2497 5.78983 31.2497 5.88674C31.2497 6.03209 31.3223 6.13706 31.5727 6.13706H31.6938C31.7907 6.13706 31.8149 6.15321 31.8149 6.20166C31.8149 6.26626 31.7665 6.28241 31.6776 6.28241C31.4192 6.28241 31.072 6.25819 30.8217 6.25819C30.7329 6.25819 30.2887 6.28241 29.8688 6.28241C29.7638 6.28241 29.7154 6.26626 29.7154 6.20166C29.7154 6.15321 29.7477 6.13706 29.8123 6.13706C29.885 6.13706 29.998 6.12899 30.0626 6.12091C30.4341 6.07246 30.5875 5.79791 30.749 5.39415L32.7759 0.323003C32.8728 0.0888257 32.9212 0 33.002 0C33.0746 0 33.1231 0.0726758 33.2038 0.258403C33.3976 0.702532 34.6896 3.99717 35.2065 5.22458C35.5133 5.95134 35.7475 6.06439 35.9171 6.10476C36.0382 6.12899 36.1593 6.13706 36.2562 6.13706C36.3208 6.13706 36.3612 6.14514 36.3612 6.20166C36.3612 6.26626 36.2885 6.28241 35.9897 6.28241C35.699 6.28241 35.1096 6.28241 34.4635 6.26626C34.3182 6.25819 34.2213 6.25819 34.2213 6.20166C34.2213 6.15321 34.2536 6.13706 34.3343 6.12899C34.3909 6.11284 34.4474 6.04016 34.407 5.94326L33.761 4.23134C33.7449 4.19097 33.7206 4.17482 33.6803 4.17482ZM32.041 3.77106H33.5268C33.5672 3.77106 33.5753 3.74684 33.5672 3.72261L32.8405 1.72807C32.8324 1.69577 32.8243 1.65539 32.8001 1.65539C32.7759 1.65539 32.7597 1.69577 32.7516 1.72807L32.0087 3.71454C32.0006 3.74684 32.0087 3.77106 32.041 3.77106Z" fill="black"/>
<path d="M38.3412 3.94064V2.51943C38.3412 1.29201 38.3412 1.06591 38.325 0.807508C38.3089 0.532955 38.2443 0.403754 37.9778 0.347228C37.9132 0.331078 37.7759 0.323003 37.6629 0.323003C37.574 0.323003 37.5256 0.306853 37.5256 0.250328C37.5256 0.193802 37.5821 0.177652 37.7032 0.177652C38.1312 0.177652 38.6399 0.201877 38.8095 0.201877C39.0841 0.201877 39.6978 0.177652 39.9481 0.177652C40.4568 0.177652 40.9979 0.226102 41.4339 0.52488C41.66 0.678307 41.983 1.09014 41.983 1.63117C41.983 2.22872 41.7327 2.77783 40.9171 3.43998C41.6358 4.34439 42.193 5.06308 42.6694 5.56373C43.1216 6.03209 43.4527 6.08861 43.5738 6.11284C43.6626 6.12899 43.7353 6.13706 43.7999 6.13706C43.8645 6.13706 43.8968 6.16129 43.8968 6.20166C43.8968 6.26626 43.8403 6.28241 43.7434 6.28241H42.9763C42.5241 6.28241 42.3222 6.24204 42.1122 6.12899C41.765 5.94326 41.4581 5.56373 41.0059 4.94195C40.6829 4.49782 40.3115 3.94872 40.2065 3.82759C40.1661 3.77914 40.1177 3.77106 40.0612 3.77106L39.3586 3.75491C39.3182 3.75491 39.294 3.77106 39.294 3.81951V3.93256C39.294 4.68355 39.294 5.32148 39.3344 5.66063C39.3586 5.89481 39.4071 6.07246 39.6493 6.10476C39.7705 6.12091 39.9481 6.13706 40.045 6.13706C40.1096 6.13706 40.1419 6.16129 40.1419 6.20166C40.1419 6.25819 40.0854 6.28241 39.9804 6.28241C39.512 6.28241 38.9145 6.25819 38.7934 6.25819C38.6399 6.25819 38.1312 6.28241 37.8082 6.28241C37.7032 6.28241 37.6467 6.25819 37.6467 6.20166C37.6467 6.16129 37.679 6.13706 37.7759 6.13706C37.897 6.13706 37.9939 6.12091 38.0666 6.10476C38.2281 6.07246 38.2685 5.89481 38.3008 5.66063C38.3412 5.32148 38.3412 4.68355 38.3412 3.94064ZM39.294 0.702532V3.15736C39.294 3.24618 39.3102 3.27848 39.3667 3.30271C39.5363 3.35923 39.7785 3.38346 39.9804 3.38346C40.3034 3.38346 40.4084 3.35116 40.5537 3.24618C40.796 3.06853 41.0302 2.69708 41.0302 2.03492C41.0302 0.888259 40.2711 0.557181 39.7947 0.557181C39.5928 0.557181 39.4474 0.565256 39.3667 0.589481C39.3102 0.605631 39.294 0.637931 39.294 0.702532Z" fill="black"/>
<path d="M45.0668 5.47491L45.8662 0.209952C45.8904 0.0726758 45.9389 0 46.0035 0C46.0681 0 46.1165 0.0403754 46.2215 0.250328L48.426 4.80467L50.6224 0.193802C50.687 0.0646008 50.7274 0 50.8001 0C50.8727 0 50.9212 0.0807508 50.9454 0.250328L51.6802 5.24073C51.7529 5.74946 51.8337 5.98364 52.0759 6.05631C52.3101 6.12899 52.4716 6.13706 52.5766 6.13706C52.6493 6.13706 52.7058 6.14514 52.7058 6.19359C52.7058 6.25819 52.6089 6.28241 52.4958 6.28241C52.294 6.28241 51.1796 6.25819 50.8566 6.23396C50.6709 6.21781 50.6224 6.19359 50.6224 6.14514C50.6224 6.10476 50.6547 6.08054 50.7112 6.05631C50.7597 6.04016 50.7839 5.93519 50.7516 5.70908L50.2671 2.15605H50.2348L48.4744 5.82213C48.2887 6.20166 48.2483 6.27434 48.1757 6.27434C48.103 6.27434 48.0222 6.11284 47.893 5.87058C47.6992 5.49913 47.0613 4.26364 46.9644 4.03754C46.8917 3.86796 46.4072 2.8505 46.1246 2.24487H46.0923L45.6724 5.45876C45.6562 5.60411 45.6482 5.70908 45.6482 5.83828C45.6482 5.99171 45.7531 6.06439 45.8904 6.09669C46.0358 6.12899 46.1488 6.13706 46.2296 6.13706C46.2942 6.13706 46.3507 6.15321 46.3507 6.19359C46.3507 6.26626 46.278 6.28241 46.1569 6.28241C45.8177 6.28241 45.4544 6.25819 45.309 6.25819C45.1556 6.25819 44.768 6.28241 44.5096 6.28241C44.4288 6.28241 44.3642 6.26626 44.3642 6.19359C44.3642 6.15321 44.4127 6.13706 44.4934 6.13706C44.558 6.13706 44.6146 6.13706 44.7357 6.11284C44.9618 6.06439 45.0264 5.74946 45.0668 5.47491Z" fill="black"/>
<path d="M57.3226 4.17482H55.5218C55.4815 4.17482 55.4653 4.19097 55.4492 4.23942L55.0131 5.39415C54.9324 5.59603 54.892 5.78983 54.892 5.88674C54.892 6.03209 54.9647 6.13706 55.215 6.13706H55.3361C55.433 6.13706 55.4572 6.15321 55.4572 6.20166C55.4572 6.26626 55.4088 6.28241 55.32 6.28241C55.0616 6.28241 54.7143 6.25819 54.464 6.25819C54.3752 6.25819 53.9311 6.28241 53.5112 6.28241C53.4062 6.28241 53.3577 6.26626 53.3577 6.20166C53.3577 6.15321 53.39 6.13706 53.4546 6.13706C53.5273 6.13706 53.6403 6.12899 53.705 6.12091C54.0764 6.07246 54.2298 5.79791 54.3913 5.39415L56.4182 0.323003C56.5151 0.0888257 56.5635 0 56.6443 0C56.717 0 56.7654 0.0726758 56.8462 0.258403C57.04 0.702532 58.332 3.99717 58.8488 5.22458C59.1556 5.95134 59.3898 6.06439 59.5594 6.10476C59.6805 6.12899 59.8016 6.13706 59.8985 6.13706C59.9631 6.13706 60.0035 6.14514 60.0035 6.20166C60.0035 6.26626 59.9308 6.28241 59.6321 6.28241C59.3414 6.28241 58.7519 6.28241 58.1059 6.26626C57.9605 6.25819 57.8636 6.25819 57.8636 6.20166C57.8636 6.15321 57.8959 6.13706 57.9767 6.12899C58.0332 6.11284 58.0897 6.04016 58.0493 5.94326L57.4033 4.23134C57.3872 4.19097 57.363 4.17482 57.3226 4.17482ZM55.6833 3.77106H57.1692C57.2095 3.77106 57.2176 3.74684 57.2095 3.72261L56.4828 1.72807C56.4747 1.69577 56.4666 1.65539 56.4424 1.65539C56.4182 1.65539 56.402 1.69577 56.394 1.72807L55.651 3.71454C55.643 3.74684 55.651 3.77106 55.6833 3.77106Z" fill="black"/>
<path d="M61.9835 3.94064V2.51943C61.9835 1.29201 61.9835 1.06591 61.9673 0.807508C61.9512 0.532955 61.8866 0.403754 61.6201 0.347228C61.5555 0.331078 61.4182 0.323003 61.3052 0.323003C61.2164 0.323003 61.1679 0.306853 61.1679 0.250328C61.1679 0.193802 61.2244 0.177652 61.3456 0.177652C61.7735 0.177652 62.2823 0.201877 62.5084 0.201877C62.7587 0.201877 63.2674 0.177652 63.7519 0.177652C64.7613 0.177652 66.1099 0.177652 66.99 1.09821C67.3938 1.51812 67.7733 2.18835 67.7733 3.14928C67.7733 4.16674 67.3453 4.94195 66.8931 5.40223C66.5217 5.78176 65.6819 6.35509 64.188 6.35509C63.8973 6.35509 63.5662 6.33086 63.2593 6.30664C62.9525 6.28241 62.6699 6.25819 62.468 6.25819C62.3792 6.25819 62.2015 6.25819 62.0077 6.26626C61.822 6.26626 61.612 6.28241 61.4505 6.28241C61.3456 6.28241 61.289 6.25819 61.289 6.20166C61.289 6.16129 61.3213 6.13706 61.4182 6.13706C61.5394 6.13706 61.6363 6.12091 61.7089 6.10476C61.8704 6.07246 61.9108 5.89481 61.9431 5.66063C61.9835 5.32148 61.9835 4.68355 61.9835 3.94064ZM62.9929 2.39022V3.40768C62.9929 4.26364 63.0009 4.88542 63.009 5.03885C63.0171 5.24073 63.0332 5.56373 63.0978 5.65256C63.2028 5.80598 63.5177 5.97556 64.1557 5.97556C64.9793 5.97556 65.5284 5.81406 66.0129 5.39415C66.5298 4.95003 66.6913 4.21519 66.6913 3.38346C66.6913 2.35792 66.2633 1.69577 65.9161 1.36469C65.1731 0.654082 64.2526 0.557181 63.6227 0.557181C63.4612 0.557181 63.1624 0.581406 63.0978 0.613706C63.0252 0.646006 63.0009 0.686382 63.0009 0.775208C62.9929 1.04976 62.9929 1.75229 62.9929 2.39022Z" fill="black"/>
<path d="M72.7924 4.17482H70.9916C70.9512 4.17482 70.9351 4.19097 70.9189 4.23942L70.4829 5.39415C70.4021 5.59603 70.3618 5.78983 70.3618 5.88674C70.3618 6.03209 70.4344 6.13706 70.6848 6.13706H70.8059C70.9028 6.13706 70.927 6.15321 70.927 6.20166C70.927 6.26626 70.8786 6.28241 70.7897 6.28241C70.5313 6.28241 70.1841 6.25819 69.9338 6.25819C69.845 6.25819 69.4008 6.28241 68.9809 6.28241C68.8759 6.28241 68.8275 6.26626 68.8275 6.20166C68.8275 6.15321 68.8598 6.13706 68.9244 6.13706C68.9971 6.13706 69.1101 6.12899 69.1747 6.12091C69.5462 6.07246 69.6996 5.79791 69.8611 5.39415L71.888 0.323003C71.9849 0.0888257 72.0333 0 72.1141 0C72.1867 0 72.2352 0.0726758 72.3159 0.258403C72.5097 0.702532 73.8017 3.99717 74.3186 5.22458C74.6254 5.95134 74.8596 6.06439 75.0292 6.10476C75.1503 6.12899 75.2714 6.13706 75.3683 6.13706C75.4329 6.13706 75.4733 6.14514 75.4733 6.20166C75.4733 6.26626 75.4006 6.28241 75.1018 6.28241C74.8111 6.28241 74.2217 6.28241 73.5756 6.26626C73.4303 6.25819 73.3334 6.25819 73.3334 6.20166C73.3334 6.15321 73.3657 6.13706 73.4464 6.12899C73.503 6.11284 73.5595 6.04016 73.5191 5.94326L72.8731 4.23134C72.857 4.19097 72.8327 4.17482 72.7924 4.17482ZM71.1531 3.77106H72.6389C72.6793 3.77106 72.6874 3.74684 72.6793 3.72261L71.9526 1.72807C71.9445 1.69577 71.9364 1.65539 71.9122 1.65539C71.888 1.65539 71.8718 1.69577 71.8637 1.72807L71.1208 3.71454C71.1127 3.74684 71.1208 3.77106 71.1531 3.77106Z" fill="black"/>
</svg>
